<?xml version="1.0" standalone="no"?>
<!DOCTYPE svg PUBLIC "-//W3C//DTD SVG 20010904//EN"
 "http://www.w3.org/TR/2001/REC-SVG-20010904/DTD/svg10.dtd">
<svg version="1.0" xmlns="http://www.w3.org/2000/svg"
 width="1280.000000pt" height="1242.000000pt" viewBox="0 0 1280.000000 1242.000000"
 preserveAspectRatio="xMidYMid meet">
<metadata>
Created by potrace 1.15, written by Peter Selinger 2001-2017
</metadata>
<g transform="translate(0.000000,1242.000000) scale(0.100000,-0.100000)"
fill="#000000" stroke="none">
<path d="M6369 12404 c-27 -8 -68 -33 -97 -59 -68 -61 -93 -124 -100 -242 l-5
-93 -742 0 c-819 0 -803 1 -887 -63 -27 -21 -55 -56 -76 -97 l-33 -64 3 -211
3 -210 30 -54 c16 -30 38 -59 47 -65 10 -6 18 -13 18 -16 0 -3 -260 -5 -578
-5 -544 0 -580 -1 -626 -19 -59 -23 -129 -85 -159 -141 -22 -40 -22 -46 -25
-648 -2 -393 1 -621 8 -646 14 -52 62 -116 115 -153 39 -28 43 -34 31 -47 -56
-64 -117 -219 -157 -395 -16 -72 -32 -132 -34 -134 -2 -3 -44 25 -92 60 -147
108 -212 152 -348 235 -159 97 -336 193 -358 193 -8 0 -18 9 -22 20 -9 28 -60
68 -104 81 -83 25 -177 -15 -217 -92 -18 -36 -18 -122 0 -158 16 -29 80 -91
95 -91 5 0 7 -8 4 -18 -2 -9 12 -66 31 -126 139 -423 387 -908 664 -1296 50
-71 92 -139 92 -150 0 -10 -40 -241 -89 -512 -49 -271 -104 -577 -122 -679
l-32 -185 -134 -73 c-113 -62 -138 -72 -156 -63 -26 11 -133 105 -159 137 -17
21 -16 23 23 51 22 16 60 56 86 89 191 248 146 601 -99 788 -206 156 -490 131
-667 -58 -103 -110 -151 -233 -151 -385 0 -152 48 -275 151 -385 112 -119 294
-184 445 -157 l59 10 60 -57 c33 -31 78 -70 99 -87 l39 -31 -634 -345 c-349
-190 -677 -367 -729 -393 -254 -126 -411 -253 -541 -439 -156 -220 -237 -457
-281 -816 -20 -164 -17 -655 5 -805 67 -447 205 -759 455 -1026 l71 -76 130
-434 c72 -239 143 -459 158 -489 37 -78 142 -179 223 -217 88 -42 150 -53 285
-53 l115 0 0 -99 c0 -277 124 -592 308 -784 l36 -37 -119 0 c-66 0 -258 5
-428 11 -322 12 -646 1 -674 -22 -19 -16 -16 -57 4 -67 11 -6 78 -6 173 1 111
7 266 7 545 -2 427 -13 640 -14 697 -5 l37 6 -86 67 c-175 133 -313 347 -373
576 -22 88 -47 312 -37 338 6 16 81 17 993 17 l987 0 -7 -92 c-29 -400 -144
-638 -404 -833 l-53 -40 128 -8 c70 -4 1273 -9 2673 -11 1400 -2 2707 -6 2905
-10 198 -3 545 -8 770 -12 457 -6 433 -11 290 66 -191 102 -296 205 -376 365
-71 143 -106 299 -110 490 l-2 80 987 3 988 2 -7 -82 c-32 -408 -154 -661
-420 -876 l-40 -32 40 0 c22 0 291 -5 597 -11 306 -6 568 -9 582 -5 30 7 45
48 26 71 -10 12 -41 15 -159 15 -80 0 -305 3 -499 7 l-352 6 25 31 c45 56 122
170 147 221 71 140 125 355 136 540 l7 110 135 6 c106 5 148 11 195 29 124 47
220 131 276 241 27 55 289 907 289 942 0 10 33 55 73 101 217 249 346 548 409
951 19 120 22 183 22 435 1 291 -7 408 -40 585 -103 564 -401 926 -918 1120
-65 24 -307 150 -685 357 -322 176 -588 323 -591 325 -3 3 9 14 25 26 17 12
62 52 101 89 l71 69 49 -11 c28 -7 79 -9 119 -5 225 20 391 153 467 375 18 51
22 88 22 170 0 82 -4 119 -22 170 -80 233 -264 373 -492 373 -178 0 -327 -82
-430 -235 -65 -97 -85 -173 -84 -313 0 -105 4 -128 27 -188 35 -91 87 -167
156 -228 l56 -50 -63 -60 c-34 -33 -80 -70 -100 -84 l-38 -25 -169 92 -169 93
-18 105 c-190 1089 -453 2493 -520 2770 -26 108 -69 223 -108 283 -16 26 -30
49 -30 51 0 2 36 6 80 9 133 10 213 59 268 162 27 50 27 52 30 293 4 287 -2
321 -73 400 -25 27 -66 60 -92 73 l-48 24 -482 3 -481 3 48 45 c92 86 90 69
90 646 1 490 1 504 20 516 25 16 26 38 1 52 -18 9 -20 23 -21 211 -1 238 -9
270 -92 344 -88 79 -20 75 -1197 74 -877 0 -1054 -3 -1092 -15z m2212 -109
c76 -54 84 -81 87 -307 l4 -198 -875 0 c-799 0 -875 -1 -881 -16 -17 -45 -33
-44 885 -44 l869 0 0 -484 c0 -334 -3 -493 -11 -517 -17 -51 -55 -97 -99 -119
-38 -19 -60 -20 -845 -20 l-805 0 0 208 c0 183 -3 212 -20 250 -28 61 -65 106
-105 128 -19 10 -35 21 -35 24 1 3 18 17 39 31 25 18 49 48 70 90 26 53 31 73
31 136 0 41 5 84 11 95 8 14 8 23 0 31 -6 6 -11 51 -11 108 0 90 -2 102 -33
160 -20 40 -48 75 -75 96 -70 53 -121 63 -335 63 l-189 0 4 95 c3 85 7 99 34
137 17 25 48 52 74 66 l45 22 1062 -2 1061 -3 43 -30z m-1865 -1177 c52 -28
91 -82 104 -140 7 -35 10 -159 8 -373 l-3 -320 -1797 -3 -1798 -2 0 355 c0
336 1 358 20 395 23 45 70 84 120 98 23 7 604 10 1675 9 1522 -2 1642 -3 1671
-19z m114 -1085 c0 -105 -5 -206 -11 -228 -15 -55 -52 -101 -102 -128 l-42
-22 -1650 0 -1650 0 -40 21 c-46 25 -66 45 -89 91 -13 26 -16 68 -16 243 l0
210 1800 0 1800 0 0 -187z m70 -364 c0 -5 -11 -9 -25 -9 -27 0 -32 9 -13 28
12 12 38 -1 38 -19z m-4704 -75 c131 -62 98 -262 -46 -281 -53 -7 -84 2 -125
38 -130 114 13 318 171 243z m7141 -81 c31 -40 84 -158 108 -239 43 -147 200
-952 374 -1919 142 -787 178 -990 174 -997 -5 -10 -7281 -10 -7286 0 -5 8 13
111 159 917 195 1084 350 1880 391 2010 24 75 67 172 101 222 l14 23 2976 0
c2821 0 2976 -1 2989 -17z m-7008 -221 c31 -26 67 -55 81 -64 46 -29 276 -242
355 -328 43 -47 120 -128 171 -180 l93 -95 -29 -140 c-15 -77 -36 -186 -46
-242 -9 -57 -20 -103 -23 -103 -14 1 -309 414 -422 590 -97 152 -220 362 -279
479 l-39 78 37 26 c20 14 39 25 41 26 3 1 30 -21 60 -47z m-110 -120 c121
-244 338 -583 576 -902 l130 -175 -30 -167 c-16 -93 -32 -168 -35 -168 -6 1
-28 32 -155 220 -242 356 -435 743 -569 1139 -31 90 -56 164 -56 165 0 1 19 0
43 -2 l42 -4 54 -106z m-243 -1896 c78 -21 148 -63 208 -126 187 -196 181
-508 -14 -695 -32 -30 -63 -55 -68 -55 -14 0 -66 83 -102 164 -17 37 -41 110
-53 162 -12 52 -26 94 -32 94 -49 2 43 -281 135 -416 45 -65 144 -168 203
-211 l50 -37 -31 -15 c-42 -19 -61 -9 -164 88 -133 125 -227 290 -263 462 -17
78 -30 103 -41 76 -16 -42 53 -256 117 -361 21 -36 39 -67 39 -70 0 -13 -160
-5 -211 10 -109 32 -204 105 -264 204 -39 65 -75 189 -75 260 0 65 35 194 67
249 104 178 310 268 499 217z m9088 -19 c124 -57 213 -151 259 -275 31 -82 31
-262 0 -344 -44 -118 -126 -209 -239 -264 -63 -31 -85 -37 -163 -42 -123 -7
-128 -4 -90 52 65 97 134 290 127 359 -5 52 -21 37 -34 -33 -43 -224 -179
-435 -361 -561 -41 -29 -44 -29 -73 -14 l-30 16 72 58 c105 84 183 182 246
307 71 141 112 340 63 310 -6 -4 -11 -19 -11 -34 0 -78 -102 -333 -150 -377
-19 -17 -21 -16 -64 19 -58 47 -119 140 -146 222 -28 83 -30 213 -6 295 18 62
73 159 114 202 41 43 121 93 187 117 85 30 218 24 299 -13z m-325 -1359 c374
-205 679 -374 677 -375 -2 -2 -63 4 -137 12 -166 18 -510 20 -527 3 -15 -15
-15 -55 0 -64 6 -4 95 -9 197 -10 273 -4 480 -28 677 -78 74 -18 133 -46 347
-164 142 -78 262 -142 266 -142 5 0 34 -26 66 -57 174 -174 297 -416 354 -700
39 -189 46 -281 46 -598 0 -340 -10 -442 -65 -662 -154 -613 -543 -994 -1100
-1077 -471 -70 -1291 23 -2054 235 l-108 30 -157 -40 c-477 -122 -1158 -228
-1771 -275 -1114 -87 -2182 -44 -3224 130 -337 56 -719 141 -765 171 -28 18
-18 19 -286 -51 -720 -188 -1469 -267 -1915 -200 -440 66 -784 324 -979 735
-81 170 -132 345 -168 579 -22 143 -26 677 -5 830 44 328 131 570 273 759 116
155 207 233 401 340 204 112 382 170 644 206 139 20 456 37 530 29 72 -7 104
5 104 40 0 47 -13 49 -273 43 -138 -3 -291 -12 -356 -21 -62 -9 -115 -15 -118
-13 -2 2 306 173 684 380 l688 375 3687 1 3687 1 680 -372z m-1176 -3788 c671
-173 1321 -258 1777 -230 204 12 316 31 461 80 129 43 200 76 304 144 38 24
71 44 72 42 6 -6 -230 -776 -253 -822 -34 -72 -111 -147 -192 -186 l-67 -33
-1832 -3 -1833 -2 5 27 c20 113 33 264 26 295 -13 57 -49 106 -99 136 l-47 27
-1570 0 -1570 0 -47 -28 c-48 -28 -89 -84 -102 -140 -5 -23 10 -179 29 -290
l5 -27 -1728 2 -1727 3 -65 31 c-78 36 -159 112 -193 180 -20 39 -247 773
-247 797 0 4 26 -10 57 -30 122 -78 313 -149 481 -178 457 -79 1226 -2 2015
202 l178 46 167 -41 c636 -156 1299 -246 2142 -293 277 -15 1035 -15 1305 0
716 40 1283 108 1845 221 146 30 444 99 508 119 2 1 90 -21 195 -49z m-4923
-1108 c0 -5 11 -94 25 -197 28 -215 42 -248 125 -295 l45 -25 1480 0 1480 0
42 22 c50 27 87 74 102 128 8 31 51 339 51 369 0 3 284 6 630 6 l630 0 0 -73
c0 -156 37 -353 91 -482 44 -106 105 -196 195 -288 l79 -80 -140 7 c-77 4
-1495 11 -3152 15 -1657 4 -3015 10 -3019 13 -3 4 6 19 21 35 53 56 116 153
161 247 68 145 96 271 120 539 l6 67 514 0 c283 0 514 -4 514 -8z"/>
<path d="M7545 9488 c-99 -21 -114 -21 -1920 -27 -1738 -6 -1822 -7 -1870 -24
-148 -55 -264 -166 -318 -304 -15 -39 -41 -167 -167 -823 -27 -140 -108 -561
-180 -935 -172 -892 -174 -904 -168 -910 6 -6 6869 -7 6875 -1 5 5 10 -21
-237 1261 -100 517 -199 1034 -221 1149 -22 115 -49 231 -59 258 -42 112 -141
223 -243 272 -105 51 -146 56 -483 56 -279 0 -321 2 -405 21 -74 16 -139 22
-299 25 -180 3 -217 1 -305 -18z m-330 -91 c-112 -47 -205 -97 -326 -176
l-104 -69 -25 23 c-37 35 -109 65 -157 65 -53 0 -129 -28 -183 -68 l-41 -30
-57 21 c-84 30 -182 28 -248 -5 -57 -30 -112 -87 -146 -150 l-23 -43 -7 130
c-8 146 -16 164 -87 203 -66 38 -173 50 -501 57 -251 5 -318 4 -382 -9 -142
-28 -218 -76 -253 -158 -8 -21 -17 -38 -20 -38 -2 0 -57 35 -122 77 -128 83
-178 106 -285 128 -98 21 -317 35 -440 29 -83 -4 -99 -3 -84 7 60 37 62 37
1841 38 l1730 1 -80 -33z m730 23 c138 -14 233 -33 360 -74 308 -100 567 -422
661 -822 21 -92 44 -239 44 -289 l0 -40 -66 100 c-88 134 -131 226 -204 440
-64 187 -103 266 -148 300 -45 33 -126 31 -338 -8 -305 -58 -345 -62 -574 -62
l-215 0 -162 43 c-235 61 -301 55 -355 -30 -36 -59 -99 -202 -208 -473 -78
-196 -213 -471 -251 -509 -12 -14 -12 230 1 352 31 286 138 532 299 685 174
166 516 329 776 371 166 26 235 29 380 16z m980 -5 c148 -39 273 -150 328
-292 9 -23 59 -263 111 -535 52 -271 163 -846 246 -1278 83 -432 153 -793 156
-802 5 -17 -15 -18 -323 -17 -327 0 -328 0 -278 18 77 28 132 58 176 98 40 36
89 118 89 148 0 21 3 20 82 -27 73 -44 81 -54 92 -130 7 -44 18 -59 29 -40 10
16 -157 977 -193 1112 -5 19 -33 136 -61 260 -123 539 -255 913 -368 1042 -55
62 -207 184 -316 253 -52 33 -125 81 -162 108 -38 26 -95 58 -128 72 l-60 25
260 0 c203 0 274 -3 320 -15z m-4726 -81 c51 -8 119 -24 150 -37 52 -20 56
-25 63 -62 19 -108 -3 -278 -39 -300 -55 -34 -176 -140 -226 -200 -99 -118
-177 -310 -177 -437 0 -26 -2 -48 -4 -48 -2 0 -33 30 -68 66 -59 61 -63 68
-60 105 4 38 5 39 44 39 51 0 47 24 -5 28 l-37 3 0 55 c0 51 1 54 25 54 33 0
32 18 -1 26 -22 6 -25 11 -22 48 3 40 4 41 36 38 42 -3 44 24 2 33 -28 6 -30
10 -30 52 l0 45 52 -4 c70 -4 78 19 9 28 -51 7 -51 7 -51 43 0 55 10 65 54 53
21 -6 38 -7 42 -1 9 16 -6 29 -34 29 -40 0 -50 11 -45 48 4 26 9 32 22 27 9
-4 29 -9 45 -12 41 -9 30 19 -15 34 -31 10 -34 14 -32 49 3 46 9 52 33 36 14
-8 21 -9 26 0 6 10 -15 33 -38 40 -6 2 -5 14 1 29 8 21 15 26 35 22 35 -7 33
12 -3 30 -18 9 -42 12 -66 8 -45 -7 -60 -31 -20 -31 22 0 26 -4 23 -22 -2 -19
-10 -24 -46 -26 -51 -4 -53 -25 -4 -30 34 -3 36 -9 26 -61 -5 -24 -12 -31 -30
-31 -29 0 -32 -16 -4 -25 20 -6 27 -39 12 -62 -4 -6 -24 -13 -45 -15 -52 -4
-51 -22 2 -26 39 -3 42 -5 37 -25 -3 -12 -6 -34 -6 -49 0 -26 -3 -28 -46 -28
-56 0 -57 -23 0 -28 l37 -3 -3 -47 c-3 -45 -4 -47 -35 -50 -43 -4 -45 -32 -3
-32 28 0 30 -2 30 -39 0 -36 -3 -40 -27 -43 -39 -4 -42 -28 -4 -28 31 0 31 0
31 -55 0 -54 -1 -56 -26 -53 -15 2 -29 -2 -31 -9 -2 -7 8 -13 24 -15 22 -2 29
-9 31 -30 2 -16 0 -28 -3 -28 -4 0 -91 81 -193 181 -136 132 -190 179 -204
176 -10 -3 -18 -2 -18 2 0 4 14 79 30 167 37 193 71 272 155 354 l56 55 102 6
c138 9 352 1 466 -17z m1466 -24 c30 -6 21 -7 -35 -3 -41 3 -77 7 -79 9 -8 7
74 3 114 -6z m72 -16 c-3 -3 -12 -4 -19 -1 -8 3 -5 6 6 6 11 1 17 -2 13 -5z
m62 -18 c15 -8 34 -23 42 -33 13 -17 13 -17 -6 -2 -11 9 -33 24 -50 32 -16 9
-26 16 -22 17 4 0 20 -6 36 -14z m-1230 -107 c45 -28 88 -64 96 -79 l14 -27
-59 -17 c-32 -10 -87 -31 -121 -47 -34 -16 -64 -28 -66 -26 -2 2 2 28 8 58 7
30 9 90 6 137 l-5 83 23 -15 c13 -8 60 -38 104 -67z m2117 21 c23 -11 49 -29
59 -40 18 -20 17 -22 -47 -88 -180 -187 -259 -393 -304 -788 -4 -36 -10 -44
-37 -55 -55 -23 -106 -77 -113 -120 -6 -37 -7 -38 -30 -23 -12 9 -34 31 -48
49 l-26 33 34 34 c56 56 67 112 76 368 8 242 19 331 50 413 26 69 46 97 102
146 96 85 200 111 284 71z m-412 -45 c32 -9 63 -18 68 -21 5 -3 -3 -22 -18
-41 -67 -88 -93 -216 -104 -518 -8 -239 -15 -279 -53 -336 -37 -55 -51 -50
-95 38 -67 133 -113 295 -147 521 -19 128 -19 162 -1 162 8 0 18 12 24 28 16
44 69 110 112 138 67 45 124 52 214 29z m2633 -116 c100 -86 159 -173 212
-311 l10 -27 -44 33 c-24 19 -57 37 -74 41 -25 5 -35 19 -69 90 -44 91 -101
180 -166 260 l-41 50 45 -33 c25 -18 82 -64 127 -103z m-3818 20 c77 -12 164
-41 246 -82 67 -33 189 -116 181 -124 -2 -3 2 -24 11 -46 8 -23 15 -71 15
-106 -1 -54 -6 -76 -34 -130 -40 -78 -59 -92 -87 -67 -11 10 -45 26 -77 36
l-58 18 -12 63 c-37 196 -143 360 -271 420 -86 40 -73 43 86 18z m3469 -64
c37 -27 68 -93 131 -279 33 -98 78 -215 100 -260 40 -82 135 -233 199 -316
l34 -45 -6 -190 c-10 -261 -24 -368 -58 -426 -86 -146 -237 -308 -364 -390
-35 -23 -64 -45 -64 -50 0 -4 -32 16 -71 45 -197 149 -416 213 -694 203 -231
-8 -397 -60 -580 -183 -52 -34 -97 -59 -100 -54 -3 4 -35 24 -71 44 -137 76
-276 200 -368 329 -27 38 -58 70 -71 73 -20 5 -24 17 -44 132 -12 70 -25 156
-30 192 l-9 65 73 130 c40 72 88 159 108 195 19 36 75 164 122 285 91 231 194
456 222 487 25 28 107 23 257 -16 195 -51 274 -60 465 -53 180 6 305 22 531
67 167 33 255 37 288 15z m-2873 -327 c58 -85 99 -174 127 -280 27 -100 32
-314 9 -415 -15 -68 -31 -83 -31 -30 0 43 -26 129 -56 190 -35 68 -88 122
-148 152 -48 24 -53 29 -65 75 -7 27 -21 61 -32 74 l-20 25 35 45 c52 69 70
133 63 233 l-5 83 39 -42 c21 -24 59 -73 84 -110z m3366 54 c86 -55 112 -97
162 -265 86 -285 197 -744 197 -816 0 -40 -42 -301 -63 -391 l-13 -55 -31 46
c-44 64 -123 133 -189 165 -53 26 -55 29 -50 58 12 66 36 294 36 344 0 50 3
58 46 106 113 124 111 244 -3 300 -41 21 -41 22 -48 86 -10 100 -52 297 -79
378 -14 39 -21 72 -17 72 4 0 27 -13 52 -28z m-3331 -36 c0 -6 -9 0 -20 14
-26 33 -25 52 0 21 11 -13 20 -28 20 -35z m-863 -192 c123 -28 179 -53 177
-80 -1 -11 -8 -44 -15 -75 -11 -51 -11 -62 10 -127 l23 -70 -41 -60 c-91 -135
-216 -256 -398 -387 l-101 -74 -61 74 c-33 40 -148 173 -256 296 l-195 224 0
56 c0 50 3 57 25 67 14 7 39 12 54 12 16 0 89 29 162 64 148 71 209 94 284
106 74 12 211 2 332 -26z m508 7 c82 -37 134 -117 135 -205 0 -35 -6 -56 -19
-70 -11 -12 -23 -37 -28 -56 -11 -43 -82 -95 -143 -105 -145 -25 -288 115
-265 258 12 78 34 104 125 151 95 48 137 54 195 27z m-1829 -343 c157 -159
233 -245 299 -338 64 -89 134 -169 245 -280 86 -85 177 -184 202 -220 44 -63
115 -183 111 -187 -1 -2 5 -20 14 -40 9 -21 18 -70 20 -108 4 -61 1 -75 -17
-98 -12 -15 -30 -27 -40 -27 -9 0 -24 -7 -31 -16 -20 -25 -179 -15 -235 14
l-41 21 -6 93 c-15 220 -122 656 -165 673 -9 3 -74 9 -143 12 l-126 6 -6 83
c-2 45 -8 88 -12 94 -8 13 -173 9 -206 -4 -13 -6 -17 -27 -22 -92 -2 -47 -6
-87 -8 -89 -2 -2 -17 -7 -33 -11 -21 -5 -27 -4 -22 5 4 6 -18 42 -53 84 l-60
73 49 259 c60 313 58 305 69 305 4 0 102 -96 217 -212z m2021 106 c-3 -3 -12
-4 -19 -1 -8 3 -5 6 6 6 11 1 17 -2 13 -5z m838 -302 c-8 -9 -66 41 -80 68
-28 54 -15 98 38 130 l32 20 7 -107 c4 -59 5 -109 3 -111z m2775 118 c0 -30
-40 -110 -55 -110 -3 0 -5 46 -5 102 l0 102 30 -29 c22 -21 30 -38 30 -65z
m-3440 -8 c12 -30 19 -56 17 -58 -5 -5 -67 129 -67 142 1 18 31 -31 50 -84z
m145 8 c-8 -30 -12 -40 -10 -21 3 18 5 47 5 64 0 20 4 27 9 22 6 -6 5 -30 -4
-65z m-705 -25 c24 -13 58 -18 106 -18 l72 0 20 -51 c33 -81 42 -126 42 -206
-1 -95 -40 -294 -76 -384 -31 -78 -47 -89 -191 -128 -94 -25 -307 -29 -387 -7
-48 14 -50 15 -68 74 -16 50 -64 129 -146 244 -11 15 2 28 115 112 149 110
298 255 367 356 l49 72 31 -23 c17 -13 47 -32 66 -41z m1098 -63 c46 -59 5
-33 -54 36 -58 66 -58 66 -15 31 25 -19 55 -50 69 -67z m142 -123 c0 -18 -2
-19 -15 -9 -15 12 -12 30 6 30 5 0 9 -10 9 -21z m-2826 -71 c3 -13 6 -48 6
-79 l0 -57 -92 -4 c-51 -3 -94 -4 -96 -3 -1 1 1 36 4 78 8 87 5 84 105 86 61
1 67 -1 73 -21z m-335 -94 c23 -31 41 -57 38 -60 -6 -6 -111 -23 -116 -18 -6
5 21 134 28 133 3 0 26 -25 50 -55z m271 -119 c0 -37 -3 -45 -19 -45 -10 0
-24 -7 -31 -15 -11 -13 -7 -15 24 -15 l36 0 0 -48 c0 -45 -2 -48 -32 -57 -40
-12 -35 -30 7 -30 29 0 30 -2 33 -47 l3 -47 -38 -3 c-47 -4 -46 -22 2 -26 35
-3 35 -3 35 -53 l0 -49 -41 0 c-51 0 -49 -24 3 -28 38 -3 48 -18 48 -74 0 -24
-4 -27 -40 -30 -51 -4 -53 -21 -3 -28 22 -3 38 -10 37 -17 -1 -7 -2 -28 -2
-47 -2 -32 -5 -35 -37 -38 -20 -2 -35 -7 -35 -13 0 -5 15 -11 35 -13 35 -3 35
-3 35 -52 0 -49 0 -49 -35 -52 -45 -4 -50 -22 -7 -26 l33 -3 -3 -52 c-3 -51
-4 -52 -35 -55 -38 -4 -45 -22 -9 -22 32 0 36 -7 29 -58 l-6 -42 -214 0 -213
0 -10 26 c-13 32 -29 229 -30 355 -1 77 10 150 59 397 32 167 61 306 64 308
10 10 220 38 320 42 l37 2 0 -45z m325 37 l39 -7 38 -118 c41 -128 80 -303 98
-435 23 -173 9 -436 -29 -534 l-11 -28 -220 0 -220 0 0 23 c0 54 10 67 51 67
52 0 55 27 4 32 -20 2 -35 6 -35 11 0 4 0 25 0 46 0 37 2 40 32 43 42 4 50 28
9 28 -31 0 -31 0 -31 55 0 54 0 55 30 55 39 0 39 17 -1 25 -29 7 -30 9 -27 53
3 43 5 47 31 50 35 4 30 26 -6 30 -25 3 -27 7 -27 53 0 48 1 49 30 49 20 0 30
5 30 15 0 10 -10 15 -31 15 l-30 0 3 53 c3 49 5 52 31 55 16 2 26 8 24 15 -2
7 -16 11 -31 9 -23 -2 -26 1 -26 30 0 18 -3 43 -6 54 -5 18 0 22 31 28 45 9
42 32 -3 28 l-32 -3 0 50 c0 49 1 50 35 57 21 4 35 12 35 21 0 12 -8 13 -39 8
l-39 -6 -4 40 -4 41 131 -1 c71 0 148 -3 170 -7z m2605 -32 c0 -19 -11 -26
-23 -14 -8 8 3 34 14 34 5 0 9 -9 9 -20z m-234 -15 c56 -8 133 -21 172 -30
l71 -16 11 -55 c7 -31 10 -57 8 -58 -1 -1 -23 -14 -49 -29 -83 -47 -174 -152
-203 -235 -21 -58 -28 -132 -17 -186 l9 -48 -32 7 c-114 24 -294 36 -541 36
-325 0 -593 -19 -943 -67 l-114 -15 -64 56 c-35 31 -64 65 -64 75 0 10 -3 25
-6 34 -5 12 1 14 30 9 19 -3 46 -3 60 1 36 9 115 91 138 143 18 40 23 44 46
39 98 -20 218 -28 301 -18 96 12 247 57 322 97 28 15 63 25 88 25 33 0 49 7
81 36 45 41 110 61 228 72 46 4 77 12 80 20 7 21 -138 12 -221 -14 -12 -4 -1
17 33 60 l52 66 76 1 c43 0 86 5 97 10 25 11 216 2 351 -16z m3309 -500 c24
-137 47 -272 51 -298 l6 -48 -70 43 -71 43 -1 50 c0 62 -22 150 -57 228 l-26
58 31 162 c18 89 35 180 39 202 6 37 8 32 30 -75 13 -63 43 -227 68 -365z
m-4155 285 c-8 -5 -16 -8 -17 -6 -2 2 -1 11 3 20 5 13 10 14 18 6 8 -8 7 -13
-4 -20z m1164 -158 c31 -137 70 -222 132 -291 107 -119 245 -156 417 -111 92
24 187 34 205 22 14 -10 52 -134 52 -173 0 -33 -24 -54 -78 -69 -57 -15 -364
-5 -473 16 -228 43 -392 147 -461 292 -57 120 -44 235 39 332 42 49 125 112
134 102 4 -4 18 -58 33 -120z m289 -85 c66 -51 175 -121 200 -130 6 -2 -10
-29 -34 -60 -43 -56 -45 -57 -88 -52 -58 7 -136 51 -177 100 -38 47 -80 134
-89 183 -3 18 -12 61 -20 95 -8 34 -15 66 -15 70 0 5 34 -27 75 -71 41 -44
108 -105 148 -135z m2301 182 c82 -55 163 -176 205 -309 30 -94 25 -212 -11
-267 -51 -78 -153 -125 -304 -142 -340 -39 -419 -38 -460 6 -55 59 -51 154 8
213 27 28 37 31 67 26 19 -3 66 -26 103 -52 58 -40 74 -46 103 -41 91 15 156
122 195 327 10 52 22 134 26 183 4 48 10 87 14 87 3 0 28 -14 54 -31z m-177
-13 c-3 -7 1 -23 8 -33 33 -47 -38 -348 -97 -410 -12 -13 -25 -23 -29 -23 -4
0 -30 15 -57 34 -28 19 -73 42 -99 52 -26 10 -58 30 -69 43 l-22 25 70 48 c97
67 174 136 238 213 54 65 67 77 57 51z m-862 -76 c161 -44 299 -119 411 -224
l74 -68 -37 -27 c-21 -15 -44 -35 -51 -44 -12 -14 -18 -10 -54 29 -221 240
-611 324 -936 204 -80 -30 -140 -63 -217 -119 -38 -28 -79 -51 -90 -51 -11 0
-55 -9 -97 -19 -43 -10 -78 -15 -78 -11 0 14 147 148 205 187 115 77 247 131
390 159 110 21 378 12 480 -16z m-3575 -130 c8 -5 11 -10 5 -10 -5 0 -17 5
-25 10 -8 5 -10 10 -5 10 6 0 17 -5 25 -10z m3505 -20 c39 -10 96 -30 128 -44
l59 -26 -30 -37 c-61 -76 -82 -90 -160 -103 -97 -16 -261 -16 -395 1 l-107 13
-51 58 c-28 32 -48 62 -44 67 10 17 158 69 230 80 39 6 81 13 95 15 47 8 205
-6 275 -24z m-490 -277 c135 -154 155 -181 150 -203 -4 -14 -8 -27 -10 -29 -2
-2 -57 31 -122 72 l-118 76 -19 68 c-23 82 -38 108 -77 132 l-30 18 28 21 c15
12 31 22 35 22 3 0 77 -80 163 -177z m764 150 c46 -34 101 -85 101 -94 0 -4
-93 -67 -207 -140 -115 -72 -218 -138 -230 -146 -21 -14 -23 -13 -33 11 -9 25
0 38 153 211 89 101 166 184 171 184 5 1 25 -11 45 -26z m-3574 -213 c110
-100 202 -186 203 -191 2 -5 -39 -9 -91 -9 l-94 0 -154 141 c-85 78 -160 147
-168 154 -12 12 -10 18 13 46 15 17 30 45 33 61 l6 29 26 -24 c14 -13 116
-106 226 -207z m1290 200 c55 -6 127 -16 159 -23 58 -12 59 -13 98 -77 80
-135 237 -242 433 -294 l90 -25 -894 0 -893 -1 -187 172 c-102 94 -187 174
-189 178 -5 12 482 64 748 80 178 10 490 5 635 -10z m-1866 -106 c50 -16 168
-19 203 -5 21 8 41 -7 193 -148 l170 -156 -339 -3 c-187 -1 -341 0 -344 2 -2
3 3 33 13 68 9 35 19 109 22 166 5 89 8 102 22 96 9 -3 36 -13 60 -20z m3689
-29 c105 0 192 -2 192 -5 0 -3 -33 -41 -73 -84 -69 -74 -74 -78 -96 -66 -15 7
-45 10 -80 8 -62 -6 -50 -14 -170 124 l-33 38 34 -8 c18 -4 120 -7 226 -7z
m604 -71 c-4 -87 9 -130 54 -183 l26 -31 -278 0 c-152 0 -275 2 -272 5 18 19
455 293 463 291 6 -2 9 -35 7 -82z m-5412 -37 c5 -58 12 -121 15 -141 l7 -36
-47 0 c-43 0 -47 2 -42 21 3 12 16 77 28 145 13 68 25 122 27 119 2 -2 8 -51
12 -108z m4528 -110 c50 -32 92 -61 92 -63 0 -2 -73 -4 -162 -4 l-163 1 39 20
c29 16 44 33 59 69 12 28 25 46 31 43 6 -3 53 -33 104 -66z m298 14 c22 -13
33 -29 36 -50 l5 -31 -89 0 -88 0 0 28 c0 32 8 45 35 60 30 17 66 14 101 -7z"/>
<path d="M7265 8566 c-82 -55 -132 -146 -81 -146 9 0 39 24 68 53 29 28 66 61
82 73 21 14 28 25 23 37 -10 26 -37 21 -92 -17z"/>
<path d="M8187 8583 c-18 -17 -3 -44 43 -77 27 -20 61 -54 75 -76 27 -42 32
-45 54 -31 32 20 -21 103 -103 163 -39 28 -57 34 -69 21z"/>
<path d="M7315 8268 c-27 -15 -35 -28 -35 -59 0 -32 28 -59 61 -59 30 0 43 9
58 37 16 31 14 41 -14 68 -27 28 -40 30 -70 13z"/>
<path d="M8140 8240 c-42 -42 -13 -110 46 -110 24 0 64 43 64 67 0 21 -46 63
-70 63 -11 0 -29 -9 -40 -20z"/>
<path d="M7701 8085 c-138 -39 -231 -118 -231 -198 0 -35 6 -47 48 -87 100
-96 244 -134 361 -95 100 33 201 130 201 193 0 51 -91 136 -183 170 -77 29
-134 34 -196 17z m206 -85 c65 -32 113 -79 113 -109 0 -24 -81 -98 -133 -122
-52 -23 -146 -25 -208 -4 -69 24 -143 85 -147 121 -4 36 30 74 93 107 107 55
181 57 282 7z"/>
<path d="M8184 7736 c-10 -25 0 -39 37 -51 19 -7 33 -16 33 -20 -2 -14 -122
-83 -183 -106 -201 -75 -518 -59 -764 38 l-38 16 25 26 c29 30 34 59 11 67
-41 16 -128 -99 -129 -169 -1 -32 3 -42 16 -45 17 -3 26 11 42 60 4 15 8 15
43 -2 103 -51 350 -100 500 -100 170 0 342 48 461 128 66 45 62 46 78 -5 5
-18 43 -16 50 2 8 19 -12 78 -37 110 -37 46 -134 81 -145 51z"/>
<path d="M6000 5554 c-691 -32 -1197 -83 -1775 -180 -346 -58 -810 -155 -829
-174 -23 -23 12 -19 181 19 870 197 1910 311 2828 311 1072 0 2192 -129 2883
-332 68 -20 98 -19 76 1 -5 5 -56 23 -114 39 -512 146 -1246 252 -2090 302
-175 10 -1018 21 -1160 14z"/>
<path d="M4305 4965 c-287 -63 -501 -283 -577 -592 -37 -152 -31 -261 41 -768
49 -349 69 -459 93 -532 106 -321 380 -568 695 -629 112 -21 3564 -21 3676 0
323 62 607 328 706 661 17 59 102 630 141 950 24 190 -22 404 -122 573 -45 77
-179 209 -258 255 -36 21 -101 50 -145 65 l-80 27 -2055 2 c-1678 1 -2066 -1
-2115 -12z m4197 -34 c259 -67 455 -272 529 -556 23 -89 30 -253 16 -367 l-9
-68 -49 0 -50 0 3 33 c3 30 6 32 48 37 34 4 46 10 48 24 5 23 -14 36 -54 36
-28 0 -30 2 -26 30 3 23 9 30 26 30 32 0 61 24 53 44 -4 10 -18 16 -40 16
l-34 0 -6 62 c-4 50 -2 64 10 74 20 14 10 44 -16 51 -20 5 -43 66 -34 90 4 10
-3 24 -18 37 -32 26 -62 74 -54 85 8 14 -6 41 -22 41 -8 0 -40 22 -70 50 -31
27 -86 65 -123 84 -133 70 23 66 -2235 66 -2262 0 -2101 4 -2237 -67 -195
-102 -314 -301 -325 -543 -4 -87 4 -170 46 -495 89 -675 85 -657 152 -786 93
-179 247 -308 444 -371 l70 -23 1845 0 c1756 0 1848 1 1909 18 36 10 83 28
105 40 23 11 59 23 81 26 30 5 43 12 53 33 22 47 81 88 126 88 l40 0 -49 -51
c-63 -64 -178 -140 -269 -178 -155 -64 -47 -61 -1991 -61 -1948 0 -1835 -4
-1994 62 -238 99 -441 326 -520 581 -11 38 -49 263 -82 500 -84 582 -83 692 1
896 88 213 269 375 482 431 71 18 140 19 2109 19 1979 1 2038 0 2111 -18z m47
-193 c66 -28 161 -87 161 -100 0 -5 -1034 -8 -2299 -8 -2031 0 -2300 -2 -2311
-15 -10 -12 -10 -18 0 -30 11 -13 284 -15 2345 -15 l2333 0 16 -25 c9 -13 16
-27 16 -30 0 -3 -1083 -5 -2407 -5 -1325 0 -2414 -4 -2421 -9 -8 -5 -12 -17
-10 -27 3 -19 64 -19 2439 -22 l2436 -2 11 -25 c7 -14 12 -30 12 -35 0 -6
-900 -10 -2437 -10 -1341 0 -2444 -4 -2451 -9 -8 -5 -12 -17 -10 -27 3 -19 64
-19 2459 -22 l2457 -2 6 -23 c3 -12 6 -41 6 -64 l0 -43 -2506 0 -2507 0 6 69
c16 188 134 373 291 453 23 12 66 29 96 39 52 17 163 18 2130 16 l2075 -2 64
-27z m351 -638 l0 -30 -2489 0 c-1676 0 -2492 -3 -2496 -10 -12 -19 -25 1 -25
36 l0 34 2505 0 2505 0 0 -30z m-14 -106 c-3 -9 -6 -24 -6 -35 0 -19 -42 -19
-2485 -19 -2360 0 -2485 1 -2485 18 0 9 -3 26 -6 37 -5 20 -1 20 2492 17 2269
-2 2496 -4 2490 -18z m-16 -126 c0 -7 -3 -23 -6 -35 l-6 -23 -2442 -2 c-2380
-3 -2441 -3 -2444 -22 -2 -10 2 -22 10 -27 7 -5 1106 -9 2441 -9 l2428 0 -3
-27 -3 -28 -2435 -5 c-2427 -5 -2435 -5 -2435 -25 0 -20 8 -20 2430 -25 l2430
-5 -3 -45 c-2 -25 -6 -53 -8 -62 -5 -17 -133 -18 -2427 -20 -1332 -2 -2424 -2
-2426 -1 -3 2 -50 335 -51 361 0 9 502 12 2475 12 1973 0 2475 -3 2475 -12z
m156 -5 c-2 -10 -8 -43 -11 -73 -30 -243 -89 -627 -106 -685 -26 -84 -77 -189
-132 -268 -32 -46 -42 -55 -49 -43 -5 9 -18 16 -29 16 -18 0 -18 1 3 35 17 24
32 35 53 37 22 2 31 9 33 26 2 13 -3 24 -12 28 -14 5 -14 9 0 35 8 16 23 29
33 29 24 0 45 25 37 45 -3 8 -13 15 -22 15 -11 0 -14 5 -9 18 3 9 14 52 23 95
14 67 19 77 38 77 26 0 48 24 40 45 -3 8 -17 15 -31 15 -28 0 -30 11 -19 94 5
36 11 46 26 46 29 0 35 30 10 50 -17 14 -20 25 -16 56 11 82 12 83 52 86 29 2
37 7 37 23 0 15 -8 21 -32 23 -29 3 -33 7 -33 33 0 24 4 29 24 29 28 0 51 24
42 45 -3 8 -17 15 -32 15 -22 0 -25 3 -20 23 3 12 6 28 6 35 0 8 17 12 51 12
43 0 50 -2 45 -17z m-220 -475 c-4 -34 -10 -66 -12 -70 -3 -4 -1084 -8 -2403
-8 l-2398 0 -7 53 c-3 28 -6 60 -6 70 0 16 122 17 2416 17 l2417 0 -7 -62z
m-4771 -165 l0 -28 2373 -3 2374 -2 -7 -33 c-4 -17 -11 -47 -16 -64 l-11 -33
-2318 0 c-2048 0 -2319 -2 -2330 -15 -10 -12 -10 -18 0 -30 11 -13 281 -15
2316 -15 1267 0 2304 -2 2304 -5 0 -2 -5 -16 -12 -30 l-11 -25 -2262 0 c-1999
0 -2264 -2 -2275 -15 -10 -12 -10 -18 0 -30 11 -13 277 -15 2253 -17 l2240 -3
-27 -32 -28 -33 -2182 0 c-1519 0 -2185 -3 -2193 -11 -30 -30 -177 207 -201
326 -24 114 -24 125 -5 125 14 0 19 -7 18 -27z m4495 -477 c0 -2 -18 -15 -40
-30 l-40 -26 -2055 0 -2055 0 -40 26 c-22 15 -40 28 -40 30 0 2 961 4 2135 4
1174 0 2135 -2 2135 -4z m-255 -129 c-22 -9 -505 -12 -1880 -12 -1375 0 -1858
3 -1880 12 -23 9 425 11 1880 11 1455 0 1903 -2 1880 -11z"/>
<path d="M1865 4864 c-214 -19 -400 -83 -570 -197 -84 -56 -226 -197 -284
-281 -96 -139 -166 -311 -191 -468 -20 -122 -8 -350 24 -473 79 -303 305 -578
591 -723 220 -110 535 -142 777 -79 251 66 468 209 617 408 102 135 158 251
203 419 28 108 35 336 14 456 -71 407 -350 736 -743 877 -118 43 -321 71 -438
61z m280 -108 c236 -50 452 -183 603 -371 76 -95 163 -267 192 -380 51 -195
43 -419 -21 -608 -131 -381 -484 -658 -887 -696 -195 -18 -376 16 -557 105
-438 213 -669 708 -550 1180 106 421 444 723 878 784 82 12 255 4 342 -14z"/>
<path d="M1773 4589 c-76 -13 -207 -63 -286 -110 -92 -55 -217 -175 -278 -268
-216 -329 -179 -768 89 -1062 78 -85 164 -147 274 -198 109 -51 191 -71 315
-78 445 -25 832 288 904 732 16 99 6 268 -21 363 -88 311 -345 551 -663 616
-82 17 -247 20 -334 5z m382 -43 c156 -44 325 -155 428 -281 313 -386 222
-962 -193 -1231 -359 -232 -844 -154 -1107 177 -126 160 -183 322 -183 529 0
389 271 728 653 815 84 19 320 14 402 -9z"/>
<path d="M10765 4864 c-214 -19 -400 -83 -570 -197 -84 -56 -226 -197 -284
-281 -96 -139 -166 -311 -191 -468 -20 -121 -8 -350 23 -470 110 -418 449
-733 882 -820 140 -28 349 -21 487 15 369 97 658 360 784 713 192 537 -49
1136 -561 1392 -167 83 -400 130 -570 116z m280 -108 c236 -50 452 -183 603
-371 76 -95 163 -267 192 -380 81 -313 15 -648 -177 -898 -472 -613 -1420
-522 -1758 168 -93 190 -127 371 -106 562 21 182 71 324 168 473 161 247 433
417 736 460 82 12 255 4 342 -14z"/>
<path d="M10673 4589 c-76 -13 -207 -63 -286 -110 -150 -89 -296 -262 -358
-424 -47 -122 -62 -219 -56 -360 7 -145 23 -209 87 -340 86 -178 218 -309 395
-395 123 -59 200 -79 332 -87 446 -25 832 288 904 732 16 99 6 268 -21 363
-88 311 -345 551 -663 616 -82 17 -247 20 -334 5z m382 -43 c274 -76 505 -305
586 -581 29 -98 36 -275 16 -381 -75 -396 -421 -684 -821 -684 -465 0 -835
369 -836 833 -1 395 269 734 653 822 84 19 320 14 402 -9z"/>
<path d="M1765 1686 c-83 -36 -135 -117 -135 -211 0 -120 77 -210 196 -229
103 -18 220 58 250 161 33 114 -22 233 -128 277 -45 19 -142 20 -183 2z m184
-36 c99 -50 137 -171 86 -270 -31 -59 -114 -110 -181 -110 -33 0 -86 20 -122
47 -103 77 -95 254 16 324 57 36 141 40 201 9z"/>
<path d="M2380 1685 c-101 -46 -156 -158 -130 -267 18 -72 93 -149 164 -167
114 -28 228 30 274 139 23 55 13 158 -21 209 -44 66 -97 95 -181 99 -48 1 -82
-3 -106 -13z m196 -40 c116 -68 128 -249 22 -328 -89 -66 -188 -60 -264 17
-77 76 -83 175 -17 264 55 74 176 96 259 47z"/>
<path d="M10320 1668 c-148 -90 -147 -306 3 -392 54 -31 114 -40 168 -26 169
45 233 240 121 371 -47 54 -101 79 -177 79 -51 0 -70 -5 -115 -32z m237 -34
c104 -83 109 -224 10 -311 -90 -79 -222 -63 -292 36 -27 38 -30 51 -30 115 0
85 22 126 90 171 36 24 48 26 112 23 62 -3 77 -7 110 -34z"/>
<path d="M10965 1686 c-148 -64 -186 -251 -76 -369 85 -93 230 -96 324 -8 112
104 85 295 -52 368 -51 26 -146 31 -196 9z m183 -35 c83 -42 124 -136 100
-229 -20 -79 -114 -152 -194 -152 -80 0 -163 63 -190 142 -14 43 -15 59 -5
102 14 61 50 109 99 136 50 26 140 26 190 1z"/>
</g>
</svg>
